<svg width="384" height="168" viewBox="0 0 384 168" fill="none" xmlns="http://www.w3.org/2000/svg">
<path d="M91.4486 117.485H52.7819V71.5471C52.7819 69.0627 52.1621 67.2034 50.9277 65.9638C49.6882 64.7294 48.2298 64.1096 46.5527 64.1096C44.8861 64.1096 43.4329 64.7086 42.1986 65.9013C40.959 67.0836 40.3444 68.9117 40.3444 71.3805V117.485H0.552734V69.7763C0.552734 61.2502 1.87044 54.0784 4.51107 48.2555C7.14648 42.4377 10.7038 37.7502 15.1777 34.193C19.6465 30.6252 24.6048 28.0367 30.0527 26.4221C35.5111 24.7971 41.0371 23.9846 46.6361 23.9846C51.1621 23.9846 55.6361 24.7711 60.0527 26.3388C64.4798 27.9117 68.5319 30.5263 72.1986 34.193C75.3236 30.7346 79.1777 28.2034 83.7611 26.5888C88.3444 24.9638 92.8496 24.0992 97.2819 23.9846C102.99 23.9846 108.594 24.8284 114.094 26.5055C119.594 28.1721 124.579 30.8127 129.053 34.4221C133.521 38.0367 137.105 42.7555 139.803 48.5888C142.511 54.4117 143.865 61.4742 143.865 69.7763V117.485H104.074V71.3805C104.074 68.9117 103.417 67.0836 102.115 65.9013C100.824 64.7086 99.3652 64.1096 97.7402 64.1096C96.1257 64.1096 94.6777 64.7294 93.3861 65.9638C92.0944 67.2034 91.4486 69.0627 91.4486 71.5471V117.485Z" fill="black"/>
<path d="M266.997 30.7095H305.663V76.647C305.663 79.1313 306.283 80.9907 307.518 82.2303C308.757 83.4647 310.215 84.0845 311.893 84.0845C313.559 84.0845 315.012 83.4855 316.247 82.2928C317.486 81.1105 318.101 79.2824 318.101 76.8136V30.7095H357.893V78.4178C357.893 86.9438 356.575 94.1157 353.934 99.9386C351.299 105.756 347.742 110.444 343.268 114.001C338.799 117.569 333.84 120.157 328.393 121.772C322.934 123.397 317.408 124.209 311.809 124.209C307.283 124.209 302.809 123.423 298.393 121.855C293.965 120.282 289.913 117.668 286.247 114.001C283.122 117.459 279.268 119.991 274.684 121.605C270.101 123.23 265.596 124.095 261.163 124.209C255.455 124.209 249.851 123.366 244.351 121.689C238.851 120.022 233.867 117.381 229.393 113.772C224.924 110.157 221.34 105.439 218.643 99.6053C215.934 93.7824 214.58 86.7199 214.58 78.4178V30.7095H254.372V76.8136C254.372 79.2824 255.028 81.1105 256.33 82.2928C257.622 83.4855 259.08 84.0845 260.705 84.0845C262.32 84.0845 263.768 83.4647 265.059 82.2303C266.351 80.9907 266.997 79.1313 266.997 76.647V30.7095Z" fill="black"/>
<path d="M222.209 4.16138V72.0833C222.209 78.6666 220.959 84.8645 218.459 90.6822C215.985 96.4999 212.531 101.625 208.11 106.047C203.688 110.469 198.594 113.932 192.828 116.432C187.063 118.906 180.839 120.146 174.151 120.146C167.568 120.146 161.37 118.906 155.547 116.432C149.729 113.932 144.636 110.469 140.266 106.047C135.896 101.625 132.474 96.4999 130 90.6822C127.526 84.8645 126.287 78.6666 126.287 72.0833C126.287 65.3958 127.526 59.1718 130 53.4062C132.474 47.6406 135.896 42.5468 140.266 38.1197C144.636 33.6978 149.729 30.2499 155.547 27.776C161.37 25.302 167.568 24.0624 174.151 24.0624H180.151V63.8281H174.151C171.886 63.8281 169.964 64.6458 168.386 66.276C166.828 67.8854 166.052 69.8176 166.052 72.0833C166.052 74.3489 166.828 76.2968 168.386 77.927C169.964 79.5364 171.886 80.3385 174.151 80.3385C176.521 80.3385 178.479 79.5364 180.031 77.927C181.615 76.2968 182.401 74.3489 182.401 72.0833V4.16138H222.209Z" stroke="white" stroke-width="8.08827"/>
<path d="M222.192 4.1499V72.0874C222.192 78.6707 220.947 84.8739 218.463 90.6916C215.989 96.5145 212.536 101.639 208.109 106.067C203.692 110.483 198.598 113.936 192.838 116.421C187.072 118.889 180.843 120.129 174.15 120.129C167.577 120.129 161.38 118.889 155.546 116.421C149.723 113.936 144.63 110.483 140.255 106.067C135.89 101.639 132.468 96.5145 129.984 90.6916C127.51 84.8739 126.275 78.6707 126.275 72.0874C126.275 65.4103 127.51 59.1864 129.984 53.4207C132.468 47.6447 135.89 42.5457 140.255 38.1291C144.63 33.702 149.723 30.2489 155.546 27.7749C161.38 25.2905 167.577 24.0457 174.15 24.0457H180.15V63.8374H174.15C171.885 63.8374 169.968 64.6499 168.4 66.2749C166.843 67.8895 166.067 69.827 166.067 72.0874C166.067 74.353 166.843 76.2957 168.4 77.9207C169.968 79.5353 171.885 80.3374 174.15 80.3374C176.525 80.3374 178.489 79.5353 180.046 77.9207C181.614 76.2957 182.4 74.353 182.4 72.0874V4.1499H222.192Z" fill="#008000"/>
<mask id="mask0_438_533" style="mask-type:luminance" maskUnits="userSpaceOnUse" x="357" y="96" width="27" height="26">
<path d="M357.995 96.4324H383.489V121.927H357.995V96.4324Z" fill="white"/>
</mask>
<g mask="url(#mask0_438_533)">
<mask id="mask1_438_533" style="mask-type:luminance" maskUnits="userSpaceOnUse" x="357" y="96" width="27" height="26">
<path d="M370.745 96.4324C363.703 96.4324 357.995 102.141 357.995 109.182C357.995 116.219 363.703 121.927 370.745 121.927C377.781 121.927 383.489 116.219 383.489 109.182C383.489 102.141 377.781 96.4324 370.745 96.4324Z" fill="white"/>
</mask>
<g mask="url(#mask1_438_533)">
<path d="M357.995 96.4324H383.489V121.927H357.995V96.4324Z" fill="black"/>
</g>
</g>
<path d="M58.7747 138.198C59.2174 138.229 59.5872 138.386 59.8789 138.677C60.181 138.969 60.3372 139.334 60.3372 139.761V159.448C60.3372 159.881 60.1914 160.25 59.8997 160.552C59.6081 160.86 59.2227 161.011 58.7539 161.011C58.2643 161.011 57.8685 160.865 57.5664 160.573C57.2747 160.282 57.1289 159.907 57.1289 159.448V144.386L50.8164 153.948C50.6602 154.146 50.4674 154.313 50.2331 154.448C50.0091 154.573 49.7799 154.625 49.5456 154.594C49.3216 154.625 49.0924 154.573 48.8581 154.448C48.6341 154.313 48.4466 154.146 48.2956 153.948L41.9622 144.094V159.448C41.9622 159.907 41.8216 160.282 41.5456 160.573C41.2799 160.865 40.9206 161.011 40.4622 161.011C40.0299 161.011 39.6758 160.865 39.3997 160.573C39.1341 160.282 39.0039 159.907 39.0039 159.448V139.761C39.0039 139.344 39.1497 138.985 39.4414 138.677C39.7435 138.36 40.1289 138.198 40.5872 138.198C40.8477 138.198 41.1081 138.271 41.3581 138.407C41.6081 138.532 41.806 138.698 41.9622 138.907L49.6706 150.594L57.4831 138.907C57.8268 138.438 58.2591 138.198 58.7747 138.198Z" fill="black"/>
<path d="M83.5747 143.802C84.033 143.802 84.408 143.958 84.6997 144.261C84.9914 144.552 85.1372 144.922 85.1372 145.365V159.406C85.1372 162.125 84.3872 164.156 82.8872 165.49C81.3976 166.833 79.4289 167.511 76.9705 167.511C76.1632 167.511 75.3716 167.432 74.5955 167.281C73.8143 167.141 73.1789 166.938 72.6789 166.677C71.8716 166.302 71.4705 165.802 71.4705 165.177C71.4705 165.063 71.4914 164.927 71.533 164.761C71.6685 164.386 71.856 164.099 72.0955 163.906C72.3299 163.708 72.6007 163.615 72.908 163.615C73.0747 163.615 73.231 163.646 73.3872 163.719C74.0643 164.021 74.6632 164.261 75.1789 164.427C75.7049 164.604 76.3143 164.698 77.0122 164.698C80.3716 164.698 82.0539 162.969 82.0539 159.511V158.865C81.4549 159.646 80.6997 160.255 79.783 160.698C78.8664 161.125 77.8091 161.344 76.6164 161.344C74.8091 161.344 73.3976 160.771 72.3872 159.615C71.3872 158.464 70.8872 156.958 70.8872 155.094V145.365C70.8872 144.906 71.0226 144.531 71.3039 144.24C71.5955 143.948 71.9601 143.802 72.408 143.802C72.8664 143.802 73.2414 143.958 73.533 144.261C73.8247 144.552 73.9705 144.922 73.9705 145.365V154.281C73.9705 155.714 74.283 156.771 74.908 157.448C75.5435 158.13 76.5018 158.469 77.783 158.469C79.0174 158.469 80.0382 158.083 80.8455 157.302C81.6476 156.526 82.0539 155.521 82.0539 154.281V145.365C82.0539 144.906 82.1893 144.531 82.4705 144.24C82.7466 143.948 83.1164 143.802 83.5747 143.802Z" fill="black"/>
<path d="M119.766 138.24C121.807 138.24 123.547 138.75 124.995 139.761C126.453 140.776 127.547 142.151 128.286 143.886C129.021 145.61 129.391 147.521 129.391 149.615C129.391 151.74 129.021 153.672 128.286 155.406C127.547 157.13 126.453 158.5 124.995 159.511C123.547 160.511 121.807 161.011 119.766 161.011H111.766C111.318 161.011 110.943 160.86 110.641 160.552C110.349 160.25 110.203 159.88 110.203 159.448V139.802C110.203 139.36 110.349 138.99 110.641 138.698C110.943 138.396 111.318 138.24 111.766 138.24H119.766ZM119.432 158.011C121.651 158.011 123.313 157.229 124.411 155.656C125.521 154.089 126.078 152.073 126.078 149.615C126.078 147.188 125.516 145.177 124.391 143.594C123.276 142.011 121.625 141.219 119.432 141.219H113.411V158.011H119.432Z" fill="black"/>
<path d="M152.503 143.74C152.962 143.74 153.337 143.886 153.628 144.177C153.92 144.469 154.066 144.854 154.066 145.323V159.448C154.066 159.881 153.92 160.25 153.628 160.552C153.337 160.86 152.962 161.011 152.503 161.011C152.045 161.011 151.67 160.865 151.378 160.573C151.097 160.282 150.962 159.907 150.962 159.448V158.594C150.404 159.36 149.634 160.011 148.649 160.552C147.675 161.078 146.628 161.344 145.503 161.344C144.029 161.344 142.691 160.964 141.483 160.198C140.274 159.438 139.326 158.381 138.649 157.032C137.967 155.672 137.628 154.146 137.628 152.448C137.628 150.756 137.967 149.235 138.649 147.886C139.326 146.526 140.264 145.469 141.462 144.719C142.654 143.959 143.967 143.573 145.399 143.573C146.55 143.573 147.618 143.813 148.608 144.282C149.592 144.756 150.378 145.365 150.962 146.115V145.323C150.962 144.865 151.097 144.49 151.378 144.198C151.67 143.896 152.045 143.74 152.503 143.74ZM145.858 158.469C146.884 158.469 147.795 158.214 148.587 157.698C149.378 157.172 149.993 156.459 150.441 155.552C150.884 154.636 151.108 153.604 151.108 152.448C151.108 151.323 150.884 150.313 150.441 149.407C149.993 148.49 149.378 147.771 148.587 147.24C147.795 146.698 146.884 146.427 145.858 146.427C144.842 146.427 143.941 146.693 143.149 147.219C142.358 147.735 141.738 148.448 141.295 149.365C140.847 150.271 140.628 151.297 140.628 152.448C140.628 153.604 140.847 154.636 141.295 155.552C141.738 156.459 142.358 157.172 143.149 157.698C143.941 158.214 144.842 158.469 145.858 158.469Z" fill="black"/>
<path d="M184.098 143.802C184.515 143.802 184.869 143.948 185.161 144.24C185.453 144.531 185.598 144.906 185.598 145.365C185.598 145.521 185.546 145.719 185.453 145.969L180.473 160.031C180.348 160.38 180.13 160.646 179.828 160.823C179.52 160.99 179.192 161.052 178.848 161.011C178.265 160.969 177.817 160.646 177.515 160.031L174.14 151.177L171.015 160.031C170.89 160.339 170.703 160.573 170.453 160.74C170.213 160.896 169.958 160.985 169.682 161.011C169.348 161.052 169.02 160.985 168.703 160.802C168.395 160.625 168.187 160.365 168.078 160.031L163.036 145.969C162.979 145.776 162.953 145.573 162.953 145.365C162.953 144.922 163.088 144.552 163.369 144.261C163.645 143.958 164.015 143.802 164.473 143.802C165.208 143.802 165.687 144.13 165.911 144.781L169.786 155.74L172.869 147.636C173.13 146.985 173.609 146.656 174.307 146.656C174.958 146.656 175.401 146.985 175.64 147.636L178.786 155.615L182.598 144.781C182.833 144.13 183.333 143.802 184.098 143.802Z" fill="black"/>
<path d="M208.31 143.74C208.768 143.74 209.143 143.886 209.435 144.177C209.726 144.469 209.872 144.854 209.872 145.323V159.448C209.872 159.881 209.726 160.25 209.435 160.552C209.143 160.86 208.768 161.011 208.31 161.011C207.851 161.011 207.476 160.865 207.185 160.573C206.903 160.282 206.768 159.907 206.768 159.448V158.594C206.211 159.36 205.44 160.011 204.455 160.552C203.481 161.078 202.435 161.344 201.31 161.344C199.836 161.344 198.497 160.964 197.289 160.198C196.08 159.438 195.132 158.381 194.455 157.032C193.773 155.672 193.435 154.146 193.435 152.448C193.435 150.756 193.773 149.235 194.455 147.886C195.132 146.526 196.07 145.469 197.268 144.719C198.461 143.959 199.773 143.573 201.205 143.573C202.356 143.573 203.424 143.813 204.414 144.282C205.398 144.756 206.185 145.365 206.768 146.115V145.323C206.768 144.865 206.903 144.49 207.185 144.198C207.476 143.896 207.851 143.74 208.31 143.74ZM201.664 158.469C202.69 158.469 203.601 158.214 204.393 157.698C205.185 157.172 205.799 156.459 206.247 155.552C206.69 154.636 206.914 153.604 206.914 152.448C206.914 151.323 206.69 150.313 206.247 149.407C205.799 148.49 205.185 147.771 204.393 147.24C203.601 146.698 202.69 146.427 201.664 146.427C200.648 146.427 199.747 146.693 198.955 147.219C198.164 147.735 197.544 148.448 197.101 149.365C196.653 150.271 196.435 151.297 196.435 152.448C196.435 153.604 196.653 154.636 197.101 155.552C197.544 156.459 198.164 157.172 198.955 157.698C199.747 158.214 200.648 158.469 201.664 158.469Z" fill="black"/>
<path d="M222.904 159.448C222.904 159.881 222.758 160.25 222.467 160.552C222.175 160.86 221.805 161.011 221.363 161.011C220.915 161.011 220.55 160.86 220.258 160.552C219.967 160.25 219.821 159.881 219.821 159.448V145.365C219.821 144.922 219.967 144.552 220.258 144.261C220.55 143.959 220.915 143.802 221.363 143.802C221.805 143.802 222.175 143.959 222.467 144.261C222.758 144.552 222.904 144.922 222.904 145.365V159.448ZM221.363 141.657C220.722 141.657 220.264 141.547 219.988 141.323C219.722 141.089 219.592 140.719 219.592 140.219V139.698C219.592 139.172 219.738 138.802 220.029 138.594C220.321 138.375 220.769 138.261 221.383 138.261C221.993 138.261 222.43 138.381 222.696 138.615C222.972 138.839 223.113 139.198 223.113 139.698V140.219C223.113 140.735 222.967 141.104 222.675 141.323C222.394 141.547 221.956 141.657 221.363 141.657Z" fill="black"/>
<path d="M273.788 138.136C274.189 138.136 274.564 138.292 274.913 138.594C275.257 138.901 275.434 139.302 275.434 139.802C275.434 139.969 275.403 140.151 275.351 140.344L268.601 160.032C268.517 160.339 268.335 160.573 268.059 160.74C267.793 160.896 267.507 160.985 267.205 161.011C266.897 161.011 266.606 160.927 266.33 160.761C266.049 160.584 265.84 160.334 265.705 160.011L260.642 148.115L255.58 160.011C255.455 160.334 255.246 160.584 254.955 160.761C254.674 160.927 254.377 161.011 254.059 161.011C253.752 160.985 253.465 160.886 253.205 160.719C252.955 160.542 252.778 160.313 252.684 160.032L245.955 140.344C245.882 140.151 245.851 139.969 245.851 139.802C245.851 139.318 246.028 138.922 246.392 138.615C246.752 138.297 247.142 138.136 247.559 138.136C247.903 138.136 248.215 138.229 248.496 138.407C248.772 138.589 248.955 138.834 249.038 139.136L254.538 155.448L259.267 143.865C259.392 143.563 259.585 143.323 259.851 143.157C260.111 142.979 260.403 142.886 260.726 142.886C261.059 142.886 261.351 142.979 261.601 143.157C261.861 143.323 262.059 143.563 262.184 143.865L266.788 155.448L272.246 139.136C272.33 138.818 272.507 138.573 272.788 138.407C273.08 138.229 273.413 138.136 273.788 138.136Z" fill="black"/>
<path d="M297.83 143.74C298.288 143.74 298.663 143.886 298.955 144.177C299.246 144.469 299.392 144.854 299.392 145.323V159.448C299.392 159.881 299.246 160.25 298.955 160.552C298.663 160.86 298.288 161.011 297.83 161.011C297.371 161.011 296.996 160.865 296.705 160.573C296.423 160.282 296.288 159.907 296.288 159.448V158.594C295.731 159.36 294.96 160.011 293.975 160.552C293.001 161.078 291.955 161.344 290.83 161.344C289.356 161.344 288.017 160.964 286.809 160.198C285.6 159.438 284.653 158.381 283.975 157.032C283.293 155.672 282.955 154.146 282.955 152.448C282.955 150.756 283.293 149.235 283.975 147.886C284.653 146.526 285.59 145.469 286.788 144.719C287.981 143.959 289.293 143.573 290.725 143.573C291.876 143.573 292.944 143.813 293.934 144.282C294.918 144.756 295.705 145.365 296.288 146.115V145.323C296.288 144.865 296.423 144.49 296.705 144.198C296.996 143.896 297.371 143.74 297.83 143.74ZM291.184 158.469C292.21 158.469 293.121 158.214 293.913 157.698C294.705 157.172 295.319 156.459 295.767 155.552C296.21 154.636 296.434 153.604 296.434 152.448C296.434 151.323 296.21 150.313 295.767 149.407C295.319 148.49 294.705 147.771 293.913 147.24C293.121 146.698 292.21 146.427 291.184 146.427C290.168 146.427 289.267 146.693 288.475 147.219C287.684 147.735 287.064 148.448 286.621 149.365C286.173 150.271 285.955 151.297 285.955 152.448C285.955 153.604 286.173 154.636 286.621 155.552C287.064 156.459 287.684 157.172 288.475 157.698C289.267 158.214 290.168 158.469 291.184 158.469Z" fill="black"/>
<path d="M312.862 159.448C312.862 159.88 312.706 160.25 312.404 160.552C312.096 160.86 311.727 161.011 311.299 161.011C310.867 161.011 310.497 160.86 310.195 160.552C309.904 160.25 309.758 159.88 309.758 159.448V138.49C309.758 138.063 309.909 137.693 310.216 137.386C310.518 137.083 310.888 136.927 311.32 136.927C311.763 136.927 312.133 137.083 312.424 137.386C312.716 137.693 312.862 138.063 312.862 138.49V159.448Z" fill="black"/>
<path d="M337.107 143.74C337.566 143.74 337.941 143.886 338.232 144.177C338.524 144.469 338.67 144.854 338.67 145.323V159.448C338.67 159.881 338.524 160.25 338.232 160.552C337.941 160.86 337.566 161.011 337.107 161.011C336.649 161.011 336.274 160.865 335.982 160.573C335.701 160.282 335.566 159.907 335.566 159.448V158.594C335.008 159.36 334.238 160.011 333.253 160.552C332.279 161.078 331.232 161.344 330.107 161.344C328.633 161.344 327.295 160.964 326.087 160.198C324.878 159.438 323.93 158.381 323.253 157.032C322.571 155.672 322.232 154.146 322.232 152.448C322.232 150.756 322.571 149.235 323.253 147.886C323.93 146.526 324.868 145.469 326.066 144.719C327.258 143.959 328.571 143.573 330.003 143.573C331.154 143.573 332.222 143.813 333.212 144.282C334.196 144.756 334.982 145.365 335.566 146.115V145.323C335.566 144.865 335.701 144.49 335.982 144.198C336.274 143.896 336.649 143.74 337.107 143.74ZM330.462 158.469C331.488 158.469 332.399 158.214 333.191 157.698C333.982 157.172 334.597 156.459 335.045 155.552C335.488 154.636 335.712 153.604 335.712 152.448C335.712 151.323 335.488 150.313 335.045 149.407C334.597 148.49 333.982 147.771 333.191 147.24C332.399 146.698 331.488 146.427 330.462 146.427C329.446 146.427 328.545 146.693 327.753 147.219C326.962 147.735 326.342 148.448 325.899 149.365C325.451 150.271 325.232 151.297 325.232 152.448C325.232 153.604 325.451 154.636 325.899 155.552C326.342 156.459 326.962 157.172 327.753 157.698C328.545 158.214 329.446 158.469 330.462 158.469Z" fill="black"/>
</svg>
