<svg width="256" height="256" viewBox="0 0 256 256" xmlns="http://www.w3.org/2000/svg">
  <rect width="256" height="256" rx="56" fill="#018bc4"/>
  <g transform="translate(-115.4 41.4) scale(1.4)">
    <path d="M222.192 4.1499V72.0874C222.192 78.6707 220.947 84.8739 218.463 90.6916C215.989 96.5145 212.536 101.639 208.109 106.067C203.692 110.483 198.598 113.936 192.838 116.421C187.072 118.889 180.843 120.129 174.15 120.129C167.577 120.129 161.38 118.889 155.546 116.421C149.723 113.936 144.63 110.483 140.255 106.067C135.89 101.639 132.468 96.5145 129.984 90.6916C127.51 84.8739 126.275 78.6707 126.275 72.0874C126.275 65.4103 127.51 59.1864 129.984 53.4207C132.468 47.6447 135.89 42.5457 140.255 38.1291C144.63 33.702 149.723 30.2489 155.546 27.7749C161.38 25.2905 167.577 24.0457 174.15 24.0457H180.15V63.8374H174.15C171.885 63.8374 169.968 64.6499 168.4 66.2749C166.843 67.8895 166.067 69.827 166.067 72.0874C166.067 74.353 166.843 76.2957 168.4 77.9207C169.968 79.5353 171.885 80.3374 174.15 80.3374C176.525 80.3374 178.489 79.5353 180.046 77.9207C181.614 76.2957 182.4 74.353 182.4 72.0874V4.1499H222.192Z" fill="#ffffff"/>
  </g>
</svg>
